# xmcd
#
# Track frame offsets:
# 150
# 14440
# 29587
# 42517
# 59220
# 76260
# 92949
# 105991
# 122115
# 136420
# 148692
# 164509
# 180783
#
# Disc length: 2582 seconds
#
#
# Revision: 0
# Processed by: cddbd v1.5.1PL2 Copyright (c) Steve Scherf et al.
# Submitted via: FreeRIP 2.944 
#
DISCID=b40a140d
DTITLE=The Derailers - Jackpot
DYEAR=1996
DGENRE=Country
TTITLE0=My Heart's Ready
TTITLE1=This Big City
TTITLE2=I'm Your Man
TTITLE3=Where Ya Been
TTITLE4=Lies, Lies, Lies
TTITLE5=The Vision on Dream
TTITLE6=Jackpot
TTITLE7=Swan Song
TTITLE8=She Left Me Cold
TTITLE9=100% Pure Fool
TTITLE10=Tarnished Love
TTITLE11=Desperate Ways
TTITLE12=Just One More Time
EXTD=
EXTT0=
EXTT1=
EXTT2=
EXTT3=
EXTT4=
EXTT5=
EXTT6=
EXTT7=
EXTT8=
EXTT9=
EXTT10=
EXTT11=
EXTT12=
PLAYORDER=
